<svg width="358" height="39" viewBox="0 0 358 39" fill="none" xmlns="http://www.w3.org/2000/svg">
<mask id="path-1-outside-1_292_390" maskUnits="userSpaceOnUse" x="-4" y="-4" width="366" height="47" fill="black">
<rect fill="white" x="-4" y="-4" width="366" height="47"/>
<path d="M8.38281 25.9395V38H0.49707V2.99023H12.8506C21.6722 2.99023 26.083 6.70931 26.083 14.1475C26.083 17.6631 24.8135 20.5114 22.2744 22.6924C19.7516 24.8571 16.3743 25.9395 12.1426 25.9395H8.38281ZM8.38281 9.04492V19.958H11.4834C15.6826 19.958 17.7822 18.1188 17.7822 14.4404C17.7822 10.8434 15.6826 9.04492 11.4834 9.04492H8.38281ZM54.208 38H46.5176V34.1914H46.3955C44.4912 37.1374 41.944 38.6104 38.7539 38.6104C32.9596 38.6104 30.0625 35.1029 30.0625 28.0879V13H37.7529V27.4043C37.7529 30.9362 39.1527 32.7021 41.9521 32.7021C43.3356 32.7021 44.4424 32.222 45.2725 31.2617C46.1025 30.2852 46.5176 28.9668 46.5176 27.3066V13H54.208V38ZM84.8721 38H77.1816V24.1084C77.1816 20.2347 75.7982 18.2979 73.0312 18.2979C71.6966 18.2979 70.598 18.8105 69.7354 19.8359C68.8727 20.8613 68.4414 22.1634 68.4414 23.7422V38H60.7266V13H68.4414V16.9551H68.5391C70.3783 13.9115 73.0557 12.3896 76.5713 12.3896C82.1051 12.3896 84.8721 15.8239 84.8721 22.6924V38ZM106.112 37.707C104.973 38.3092 103.256 38.6104 100.961 38.6104C95.5247 38.6104 92.8066 35.7865 92.8066 30.1387V18.6885H88.7539V13H92.8066V7.60449L100.497 5.40723V13H106.112V18.6885H100.497V28.7959C100.497 31.4001 101.531 32.7021 103.598 32.7021C104.411 32.7021 105.25 32.4661 106.112 31.9941V37.707ZM122.396 38.6104C118.23 38.6104 114.95 37.4466 112.558 35.1191C110.181 32.7754 108.993 29.6016 108.993 25.5977C108.993 21.4635 110.23 18.2327 112.704 15.9053C115.178 13.5615 118.523 12.3896 122.738 12.3896C126.889 12.3896 130.144 13.5615 132.504 15.9053C134.864 18.2327 136.044 21.3171 136.044 25.1582C136.044 29.3086 134.823 32.5882 132.382 34.9971C129.957 37.4059 126.628 38.6104 122.396 38.6104ZM122.592 18.2979C120.769 18.2979 119.353 18.9245 118.344 20.1777C117.335 21.431 116.83 23.2051 116.83 25.5C116.83 30.3014 118.767 32.7021 122.641 32.7021C126.335 32.7021 128.183 30.2363 128.183 25.3047C128.183 20.6335 126.319 18.2979 122.592 18.2979ZM179.33 38H171.615V34.5576H171.518C169.76 37.2594 167.18 38.6104 163.778 38.6104C160.653 38.6104 158.139 37.5117 156.234 35.3145C154.33 33.1009 153.378 30.0166 153.378 26.0615C153.378 21.9274 154.428 18.6152 156.527 16.125C158.627 13.6348 161.378 12.3896 164.779 12.3896C168.002 12.3896 170.248 13.5452 171.518 15.8564H171.615V0.988281H179.33V38ZM171.762 25.8418V23.9619C171.762 22.3343 171.29 20.9834 170.346 19.9092C169.402 18.835 168.173 18.2979 166.659 18.2979C164.95 18.2979 163.616 18.9733 162.655 20.3242C161.695 21.6589 161.215 23.498 161.215 25.8418C161.215 28.0391 161.679 29.7318 162.606 30.9199C163.534 32.1081 164.82 32.7021 166.464 32.7021C168.026 32.7021 169.296 32.0755 170.272 30.8223C171.265 29.569 171.762 27.9089 171.762 25.8418ZM208.285 27.6973H191.977C192.237 31.3268 194.524 33.1416 198.837 33.1416C201.588 33.1416 204.005 32.4906 206.088 31.1885V36.7549C203.777 37.9919 200.774 38.6104 197.079 38.6104C193.043 38.6104 189.91 37.4954 187.68 35.2656C185.45 33.0195 184.335 29.8945 184.335 25.8906C184.335 21.7402 185.539 18.4525 187.948 16.0273C190.357 13.6022 193.319 12.3896 196.835 12.3896C200.481 12.3896 203.297 13.472 205.282 15.6367C207.284 17.8014 208.285 20.7393 208.285 24.4502V27.6973ZM201.132 22.9609C201.132 19.3802 199.683 17.5898 196.786 17.5898C195.549 17.5898 194.475 18.1025 193.563 19.1279C192.668 20.1533 192.123 21.431 191.928 22.9609H201.132ZM256.601 2.99023L244.54 38H235.604L223.69 2.99023H232.187L239.486 27.3555C239.877 28.6738 240.113 29.8376 240.194 30.8467H240.341C240.455 29.7562 240.707 28.5599 241.098 27.2578L248.349 2.99023H256.601ZM282.504 27.6973H266.195C266.456 31.3268 268.743 33.1416 273.056 33.1416C275.806 33.1416 278.223 32.4906 280.307 31.1885V36.7549C277.995 37.9919 274.993 38.6104 271.298 38.6104C267.261 38.6104 264.128 37.4954 261.898 35.2656C259.669 33.0195 258.554 29.8945 258.554 25.8906C258.554 21.7402 259.758 18.4525 262.167 16.0273C264.576 13.6022 267.538 12.3896 271.054 12.3896C274.7 12.3896 277.515 13.472 279.501 15.6367C281.503 17.8014 282.504 20.7393 282.504 24.4502V27.6973ZM275.351 22.9609C275.351 19.3802 273.902 17.5898 271.005 17.5898C269.768 17.5898 268.694 18.1025 267.782 19.1279C266.887 20.1533 266.342 21.431 266.146 22.9609H275.351ZM311.239 38H303.549V24.1084C303.549 20.2347 302.165 18.2979 299.398 18.2979C298.064 18.2979 296.965 18.8105 296.103 19.8359C295.24 20.8613 294.809 22.1634 294.809 23.7422V38H287.094V13H294.809V16.9551H294.906C296.745 13.9115 299.423 12.3896 302.938 12.3896C308.472 12.3896 311.239 15.8239 311.239 22.6924V38ZM332.479 37.707C331.34 38.3092 329.623 38.6104 327.328 38.6104C321.892 38.6104 319.174 35.7865 319.174 30.1387V18.6885H315.121V13H319.174V7.60449L326.864 5.40723V13H332.479V18.6885H326.864V28.7959C326.864 31.4001 327.898 32.7021 329.965 32.7021C330.779 32.7021 331.617 32.4661 332.479 31.9941V37.707ZM357.65 38H350.351V34.4111H350.253C348.576 37.2106 346.094 38.6104 342.807 38.6104C340.382 38.6104 338.469 37.9268 337.069 36.5596C335.686 35.1761 334.994 33.3369 334.994 31.042C334.994 26.1917 337.867 23.3923 343.612 22.6436L350.399 21.7402C350.399 19.0059 348.918 17.6387 345.956 17.6387C342.978 17.6387 340.146 18.5257 337.46 20.2998V14.4893C338.534 13.9359 339.999 13.4476 341.854 13.0244C343.726 12.6012 345.427 12.3896 346.957 12.3896C354.086 12.3896 357.65 15.946 357.65 23.0586V38ZM350.399 27.8438V26.1592L345.858 26.7451C343.352 27.0706 342.099 28.2018 342.099 30.1387C342.099 31.0176 342.4 31.7419 343.002 32.3115C343.62 32.8649 344.451 33.1416 345.492 33.1416C346.941 33.1416 348.121 32.6452 349.032 31.6523C349.944 30.6432 350.399 29.3737 350.399 27.8438Z"/>
</mask>
<path d="M8.38281 25.9395V38H0.49707V2.99023H12.8506C21.6722 2.99023 26.083 6.70931 26.083 14.1475C26.083 17.6631 24.8135 20.5114 22.2744 22.6924C19.7516 24.8571 16.3743 25.9395 12.1426 25.9395H8.38281ZM8.38281 9.04492V19.958H11.4834C15.6826 19.958 17.7822 18.1188 17.7822 14.4404C17.7822 10.8434 15.6826 9.04492 11.4834 9.04492H8.38281ZM54.208 38H46.5176V34.1914H46.3955C44.4912 37.1374 41.944 38.6104 38.7539 38.6104C32.9596 38.6104 30.0625 35.1029 30.0625 28.0879V13H37.7529V27.4043C37.7529 30.9362 39.1527 32.7021 41.9521 32.7021C43.3356 32.7021 44.4424 32.222 45.2725 31.2617C46.1025 30.2852 46.5176 28.9668 46.5176 27.3066V13H54.208V38ZM84.8721 38H77.1816V24.1084C77.1816 20.2347 75.7982 18.2979 73.0312 18.2979C71.6966 18.2979 70.598 18.8105 69.7354 19.8359C68.8727 20.8613 68.4414 22.1634 68.4414 23.7422V38H60.7266V13H68.4414V16.9551H68.5391C70.3783 13.9115 73.0557 12.3896 76.5713 12.3896C82.1051 12.3896 84.8721 15.8239 84.8721 22.6924V38ZM106.112 37.707C104.973 38.3092 103.256 38.6104 100.961 38.6104C95.5247 38.6104 92.8066 35.7865 92.8066 30.1387V18.6885H88.7539V13H92.8066V7.60449L100.497 5.40723V13H106.112V18.6885H100.497V28.7959C100.497 31.4001 101.531 32.7021 103.598 32.7021C104.411 32.7021 105.25 32.4661 106.112 31.9941V37.707ZM122.396 38.6104C118.23 38.6104 114.95 37.4466 112.558 35.1191C110.181 32.7754 108.993 29.6016 108.993 25.5977C108.993 21.4635 110.23 18.2327 112.704 15.9053C115.178 13.5615 118.523 12.3896 122.738 12.3896C126.889 12.3896 130.144 13.5615 132.504 15.9053C134.864 18.2327 136.044 21.3171 136.044 25.1582C136.044 29.3086 134.823 32.5882 132.382 34.9971C129.957 37.4059 126.628 38.6104 122.396 38.6104ZM122.592 18.2979C120.769 18.2979 119.353 18.9245 118.344 20.1777C117.335 21.431 116.83 23.2051 116.83 25.5C116.83 30.3014 118.767 32.7021 122.641 32.7021C126.335 32.7021 128.183 30.2363 128.183 25.3047C128.183 20.6335 126.319 18.2979 122.592 18.2979ZM179.33 38H171.615V34.5576H171.518C169.76 37.2594 167.18 38.6104 163.778 38.6104C160.653 38.6104 158.139 37.5117 156.234 35.3145C154.33 33.1009 153.378 30.0166 153.378 26.0615C153.378 21.9274 154.428 18.6152 156.527 16.125C158.627 13.6348 161.378 12.3896 164.779 12.3896C168.002 12.3896 170.248 13.5452 171.518 15.8564H171.615V0.988281H179.33V38ZM171.762 25.8418V23.9619C171.762 22.3343 171.29 20.9834 170.346 19.9092C169.402 18.835 168.173 18.2979 166.659 18.2979C164.95 18.2979 163.616 18.9733 162.655 20.3242C161.695 21.6589 161.215 23.498 161.215 25.8418C161.215 28.0391 161.679 29.7318 162.606 30.9199C163.534 32.1081 164.82 32.7021 166.464 32.7021C168.026 32.7021 169.296 32.0755 170.272 30.8223C171.265 29.569 171.762 27.9089 171.762 25.8418ZM208.285 27.6973H191.977C192.237 31.3268 194.524 33.1416 198.837 33.1416C201.588 33.1416 204.005 32.4906 206.088 31.1885V36.7549C203.777 37.9919 200.774 38.6104 197.079 38.6104C193.043 38.6104 189.91 37.4954 187.68 35.2656C185.45 33.0195 184.335 29.8945 184.335 25.8906C184.335 21.7402 185.539 18.4525 187.948 16.0273C190.357 13.6022 193.319 12.3896 196.835 12.3896C200.481 12.3896 203.297 13.472 205.282 15.6367C207.284 17.8014 208.285 20.7393 208.285 24.4502V27.6973ZM201.132 22.9609C201.132 19.3802 199.683 17.5898 196.786 17.5898C195.549 17.5898 194.475 18.1025 193.563 19.1279C192.668 20.1533 192.123 21.431 191.928 22.9609H201.132ZM256.601 2.99023L244.54 38H235.604L223.69 2.99023H232.187L239.486 27.3555C239.877 28.6738 240.113 29.8376 240.194 30.8467H240.341C240.455 29.7562 240.707 28.5599 241.098 27.2578L248.349 2.99023H256.601ZM282.504 27.6973H266.195C266.456 31.3268 268.743 33.1416 273.056 33.1416C275.806 33.1416 278.223 32.4906 280.307 31.1885V36.7549C277.995 37.9919 274.993 38.6104 271.298 38.6104C267.261 38.6104 264.128 37.4954 261.898 35.2656C259.669 33.0195 258.554 29.8945 258.554 25.8906C258.554 21.7402 259.758 18.4525 262.167 16.0273C264.576 13.6022 267.538 12.3896 271.054 12.3896C274.7 12.3896 277.515 13.472 279.501 15.6367C281.503 17.8014 282.504 20.7393 282.504 24.4502V27.6973ZM275.351 22.9609C275.351 19.3802 273.902 17.5898 271.005 17.5898C269.768 17.5898 268.694 18.1025 267.782 19.1279C266.887 20.1533 266.342 21.431 266.146 22.9609H275.351ZM311.239 38H303.549V24.1084C303.549 20.2347 302.165 18.2979 299.398 18.2979C298.064 18.2979 296.965 18.8105 296.103 19.8359C295.24 20.8613 294.809 22.1634 294.809 23.7422V38H287.094V13H294.809V16.9551H294.906C296.745 13.9115 299.423 12.3896 302.938 12.3896C308.472 12.3896 311.239 15.8239 311.239 22.6924V38ZM332.479 37.707C331.34 38.3092 329.623 38.6104 327.328 38.6104C321.892 38.6104 319.174 35.7865 319.174 30.1387V18.6885H315.121V13H319.174V7.60449L326.864 5.40723V13H332.479V18.6885H326.864V28.7959C326.864 31.4001 327.898 32.7021 329.965 32.7021C330.779 32.7021 331.617 32.4661 332.479 31.9941V37.707ZM357.65 38H350.351V34.4111H350.253C348.576 37.2106 346.094 38.6104 342.807 38.6104C340.382 38.6104 338.469 37.9268 337.069 36.5596C335.686 35.1761 334.994 33.3369 334.994 31.042C334.994 26.1917 337.867 23.3923 343.612 22.6436L350.399 21.7402C350.399 19.0059 348.918 17.6387 345.956 17.6387C342.978 17.6387 340.146 18.5257 337.46 20.2998V14.4893C338.534 13.9359 339.999 13.4476 341.854 13.0244C343.726 12.6012 345.427 12.3896 346.957 12.3896C354.086 12.3896 357.65 15.946 357.65 23.0586V38ZM350.399 27.8438V26.1592L345.858 26.7451C343.352 27.0706 342.099 28.2018 342.099 30.1387C342.099 31.0176 342.4 31.7419 343.002 32.3115C343.62 32.8649 344.451 33.1416 345.492 33.1416C346.941 33.1416 348.121 32.6452 349.032 31.6523C349.944 30.6432 350.399 29.3737 350.399 27.8438Z" fill="#161616"/>
<path d="M8.38281 25.9395V21.9395H4.38281V25.9395H8.38281ZM8.38281 38V42H12.3828V38H8.38281ZM0.49707 38H-3.50293V42H0.49707V38ZM0.49707 2.99023V-1.00977H-3.50293V2.99023H0.49707ZM22.2744 22.6924L24.8792 25.728L24.8808 25.7267L22.2744 22.6924ZM8.38281 9.04492V5.04492H4.38281V9.04492H8.38281ZM8.38281 19.958H4.38281V23.958H8.38281V19.958ZM4.38281 25.9395V38H12.3828V25.9395H4.38281ZM8.38281 34H0.49707V42H8.38281V34ZM4.49707 38V2.99023H-3.50293V38H4.49707ZM0.49707 6.99023H12.8506V-1.00977H0.49707V6.99023ZM12.8506 6.99023C16.7955 6.99023 19.0087 7.83612 20.1964 8.83758C21.2535 9.72884 22.083 11.2408 22.083 14.1475H30.083C30.083 9.61594 28.7071 5.54932 25.3534 2.72151C22.1303 0.00389099 17.7273 -1.00977 12.8506 -1.00977V6.99023ZM22.083 14.1475C22.083 16.5638 21.2729 18.2796 19.668 19.6581L24.8808 25.7267C28.3541 22.7432 30.083 18.7623 30.083 14.1475H22.083ZM19.6696 19.6567C18.0523 21.0445 15.6866 21.9395 12.1426 21.9395V29.9395C17.0621 29.9395 21.451 28.6697 24.8792 25.728L19.6696 19.6567ZM12.1426 21.9395H8.38281V29.9395H12.1426V21.9395ZM4.38281 9.04492V19.958H12.3828V9.04492H4.38281ZM8.38281 23.958H11.4834V15.958H8.38281V23.958ZM11.4834 23.958C14.079 23.958 16.7728 23.401 18.8432 21.5875C21.0147 19.6853 21.7822 17.044 21.7822 14.4404H13.7822C13.7822 14.9891 13.7029 15.2929 13.6501 15.4318C13.6063 15.5468 13.5767 15.5655 13.5718 15.5698C13.5426 15.5954 13.087 15.958 11.4834 15.958V23.958ZM21.7822 14.4404C21.7822 11.8497 20.9971 9.22966 18.8097 7.35594C16.7408 5.58375 14.0611 5.04492 11.4834 5.04492V13.0449C13.1049 13.0449 13.5746 13.4053 13.6053 13.4317C13.6063 13.4325 13.6256 13.4398 13.6608 13.5305C13.7056 13.6454 13.7822 13.9213 13.7822 14.4404H21.7822ZM11.4834 5.04492H8.38281V13.0449H11.4834V5.04492ZM54.208 38V42H58.208V38H54.208ZM46.5176 38H42.5176V42H46.5176V38ZM46.5176 34.1914H50.5176V30.1914H46.5176V34.1914ZM46.3955 34.1914V30.1914H44.2182L43.0362 32.0199L46.3955 34.1914ZM30.0625 13V9H26.0625V13H30.0625ZM37.7529 13H41.7529V9H37.7529V13ZM45.2725 31.2617L48.2986 33.8775L48.3095 33.865L48.3202 33.8523L45.2725 31.2617ZM46.5176 13V9H42.5176V13H46.5176ZM54.208 13H58.208V9H54.208V13ZM54.208 34H46.5176V42H54.208V34ZM50.5176 38V34.1914H42.5176V38H50.5176ZM46.5176 30.1914H46.3955V38.1914H46.5176V30.1914ZM43.0362 32.0199C41.7818 33.9606 40.4335 34.6104 38.7539 34.6104V42.6104C43.4545 42.6104 47.2007 40.3141 49.7548 36.3629L43.0362 32.0199ZM38.7539 34.6104C36.6962 34.6104 35.8083 34.0244 35.3194 33.4324C34.7094 32.694 34.0625 31.145 34.0625 28.0879H26.0625C26.0625 32.0457 26.8641 35.758 29.1514 38.5271C31.5595 41.4426 35.0173 42.6104 38.7539 42.6104V34.6104ZM34.0625 28.0879V13H26.0625V28.0879H34.0625ZM30.0625 17H37.7529V9H30.0625V17ZM33.7529 13V27.4043H41.7529V13H33.7529ZM33.7529 27.4043C33.7529 29.5912 34.1683 31.9703 35.668 33.8623C37.3082 35.9317 39.6567 36.7021 41.9521 36.7021V28.7021C41.6663 28.7021 41.601 28.6567 41.6656 28.6838C41.7546 28.7212 41.8643 28.8008 41.9375 28.893C41.9954 28.9661 41.9465 28.9421 41.8827 28.7003C41.8169 28.4514 41.7529 28.0362 41.7529 27.4043H33.7529ZM41.9521 36.7021C44.3796 36.7021 46.6349 35.8022 48.2986 33.8775L42.2463 28.6459C42.2197 28.6767 42.2073 28.685 42.211 28.6822C42.2153 28.679 42.2227 28.6747 42.2279 28.6725C42.2454 28.6649 42.1761 28.7021 41.9521 28.7021V36.7021ZM48.3202 33.8523C49.9277 31.9612 50.5176 29.6303 50.5176 27.3066H42.5176C42.5176 28.3033 42.2774 28.6091 42.2247 28.6711L48.3202 33.8523ZM50.5176 27.3066V13H42.5176V27.3066H50.5176ZM46.5176 17H54.208V9H46.5176V17ZM50.208 13V38H58.208V13H50.208ZM84.8721 38V42H88.8721V38H84.8721ZM77.1816 38H73.1816V42H77.1816V38ZM69.7354 19.8359L66.6744 17.2609L69.7354 19.8359ZM68.4414 38V42H72.4414V38H68.4414ZM60.7266 38H56.7266V42H60.7266V38ZM60.7266 13V9H56.7266V13H60.7266ZM68.4414 13H72.4414V9H68.4414V13ZM68.4414 16.9551H64.4414V20.9551H68.4414V16.9551ZM68.5391 16.9551V20.9551H70.7955L71.9626 19.0238L68.5391 16.9551ZM84.8721 34H77.1816V42H84.8721V34ZM81.1816 38V24.1084H73.1816V38H81.1816ZM81.1816 24.1084C81.1816 21.8162 80.7941 19.3787 79.399 17.4255C77.8268 15.2244 75.4661 14.2979 73.0312 14.2979V22.2979C73.2581 22.2979 73.265 22.3369 73.1555 22.2857C73.0248 22.2248 72.9273 22.1289 72.8891 22.0754C72.8686 22.0468 72.9484 22.1459 73.031 22.4928C73.114 22.8414 73.1816 23.3652 73.1816 24.1084H81.1816ZM73.0312 14.2979C70.5106 14.2979 68.2936 15.3363 66.6744 17.2609L72.7963 22.411C72.8478 22.3497 72.882 22.3207 72.895 22.3106C72.9069 22.3012 72.9071 22.3028 72.8978 22.3071C72.8885 22.3114 72.8865 22.3107 72.8992 22.308C72.9132 22.3051 72.9546 22.2979 73.0312 22.2979V14.2979ZM66.6744 17.2609C65.1008 19.1315 64.4414 21.3975 64.4414 23.7422H72.4414C72.4414 22.9293 72.6447 22.5912 72.7963 22.411L66.6744 17.2609ZM64.4414 23.7422V38H72.4414V23.7422H64.4414ZM68.4414 34H60.7266V42H68.4414V34ZM64.7266 38V13H56.7266V38H64.7266ZM60.7266 17H68.4414V9H60.7266V17ZM64.4414 13V16.9551H72.4414V13H64.4414ZM68.4414 20.9551H68.5391V12.9551H68.4414V20.9551ZM71.9626 19.0238C73.0877 17.1619 74.476 16.3896 76.5713 16.3896V8.38965C71.6353 8.38965 67.6689 10.661 65.1156 14.8863L71.9626 19.0238ZM76.5713 16.3896C78.4652 16.3896 79.2469 16.9348 79.6821 17.4749C80.2503 18.1802 80.8721 19.6905 80.8721 22.6924H88.8721C88.8721 18.8258 88.1104 15.1847 85.9117 12.4558C83.5799 9.56165 80.2113 8.38965 76.5713 8.38965V16.3896ZM80.8721 22.6924V38H88.8721V22.6924H80.8721ZM106.112 37.707L107.982 41.2434L110.112 40.1171V37.707H106.112ZM92.8066 18.6885H96.8066V14.6885H92.8066V18.6885ZM88.7539 18.6885H84.7539V22.6885H88.7539V18.6885ZM88.7539 13V9H84.7539V13H88.7539ZM92.8066 13V17H96.8066V13H92.8066ZM92.8066 7.60449L91.7078 3.7584L88.8066 4.58729V7.60449H92.8066ZM100.497 5.40723H104.497V0.104306L99.3982 1.56113L100.497 5.40723ZM100.497 13H96.4971V17H100.497V13ZM106.112 13H110.112V9H106.112V13ZM106.112 18.6885V22.6885H110.112V18.6885H106.112ZM100.497 18.6885V14.6885H96.4971V18.6885H100.497ZM106.112 31.9941H110.112V25.2458L104.192 28.4851L106.112 31.9941ZM104.243 34.1707C103.97 34.315 103.04 34.6104 100.961 34.6104V42.6104C103.472 42.6104 105.976 42.3035 107.982 41.2434L104.243 34.1707ZM100.961 34.6104C98.8991 34.6104 98.0779 34.083 97.7271 33.7185C97.3489 33.3256 96.8066 32.3834 96.8066 30.1387H88.8066C88.8066 33.5417 89.6234 36.8354 91.9633 39.2664C94.3306 41.7258 97.5866 42.6104 100.961 42.6104V34.6104ZM96.8066 30.1387V18.6885H88.8066V30.1387H96.8066ZM92.8066 14.6885H88.7539V22.6885H92.8066V14.6885ZM92.7539 18.6885V13H84.7539V18.6885H92.7539ZM88.7539 17H92.8066V9H88.7539V17ZM96.8066 13V7.60449H88.8066V13H96.8066ZM93.9055 11.4506L101.596 9.25332L99.3982 1.56113L91.7078 3.7584L93.9055 11.4506ZM96.4971 5.40723V13H104.497V5.40723H96.4971ZM100.497 17H106.112V9H100.497V17ZM102.112 13V18.6885H110.112V13H102.112ZM106.112 14.6885H100.497V22.6885H106.112V14.6885ZM96.4971 18.6885V28.7959H104.497V18.6885H96.4971ZM96.4971 28.7959C96.4971 30.5199 96.8213 32.552 98.1392 34.2124C99.597 36.049 101.67 36.7021 103.598 36.7021V28.7021C103.494 28.7021 103.589 28.6854 103.79 28.77C104.016 28.8648 104.24 29.0307 104.405 29.2388C104.555 29.4278 104.576 29.549 104.558 29.4818C104.538 29.4073 104.497 29.1954 104.497 28.7959H96.4971ZM103.598 36.7021C105.209 36.7021 106.703 36.2306 108.032 35.5032L104.192 28.4851C103.796 28.7017 103.614 28.7021 103.598 28.7021V36.7021ZM102.112 31.9941V37.707H110.112V31.9941H102.112ZM112.558 35.1191L109.749 37.967L109.759 37.9767L109.768 37.9863L112.558 35.1191ZM112.704 15.9053L115.445 18.8187L115.455 18.8091L112.704 15.9053ZM132.504 15.9053L129.685 18.7435L129.695 18.7533L132.504 15.9053ZM132.382 34.9971L129.572 32.1497L129.563 32.1591L132.382 34.9971ZM122.396 34.6104C118.999 34.6104 116.818 33.6831 115.347 32.252L109.768 37.9863C113.082 41.2101 117.46 42.6104 122.396 42.6104V34.6104ZM115.366 32.2713C113.901 30.8262 112.993 28.7604 112.993 25.5977H104.993C104.993 30.4428 106.461 34.7246 109.749 37.967L115.366 32.2713ZM112.993 25.5977C112.993 22.3091 113.945 20.2301 115.445 18.8186L109.963 12.9919C106.516 16.2354 104.993 20.618 104.993 25.5977H112.993ZM115.455 18.8091C117.02 17.3269 119.291 16.3896 122.738 16.3896V8.38965C117.754 8.38965 113.337 9.79612 109.953 13.0015L115.455 18.8091ZM122.738 16.3896C126.109 16.3896 128.25 17.3183 129.685 18.7435L135.323 13.0671C132.038 9.80479 127.668 8.38965 122.738 8.38965V16.3896ZM129.695 18.7533C131.171 20.2088 132.044 22.2032 132.044 25.1582H140.044C140.044 20.4309 138.557 16.2567 135.313 13.0573L129.695 18.7533ZM132.044 25.1582C132.044 28.479 131.096 30.6461 129.572 32.1497L135.191 37.8444C138.55 34.5303 140.044 30.1382 140.044 25.1582H132.044ZM129.563 32.1591C128.057 33.6551 125.838 34.6104 122.396 34.6104V42.6104C127.418 42.6104 131.856 41.1568 135.201 37.835L129.563 32.1591ZM122.592 14.2979C119.74 14.2979 117.104 15.3398 115.228 17.6691L121.459 22.6864C121.602 22.5092 121.798 22.2979 122.592 22.2979V14.2979ZM115.228 17.6691C113.447 19.8816 112.83 22.6728 112.83 25.5H120.83C120.83 23.7374 121.223 22.9804 121.459 22.6864L115.228 17.6691ZM112.83 25.5C112.83 28.334 113.385 31.2009 115.17 33.4132C117.087 35.7898 119.833 36.7021 122.641 36.7021V28.7021C121.575 28.7021 121.415 28.4141 121.396 28.39C121.244 28.2017 120.83 27.4674 120.83 25.5H112.83ZM122.641 36.7021C125.466 36.7021 128.165 35.6985 129.998 33.2511C131.669 31.0209 132.183 28.1544 132.183 25.3047H124.183C124.183 27.3866 123.772 28.2189 123.596 28.4545C123.536 28.5337 123.498 28.5591 123.439 28.5852C123.357 28.6217 123.124 28.7021 122.641 28.7021V36.7021ZM132.183 25.3047C132.183 22.5435 131.649 19.7328 129.912 17.5548C128.036 15.2044 125.342 14.2979 122.592 14.2979V22.2979C123.113 22.2979 123.384 22.3799 123.496 22.4267C123.583 22.4632 123.618 22.4936 123.658 22.5444C123.784 22.7019 124.183 23.3946 124.183 25.3047H132.183ZM179.33 38V42H183.33V38H179.33ZM171.615 38H167.615V42H171.615V38ZM171.615 34.5576H175.615V30.5576H171.615V34.5576ZM171.518 34.5576V30.5576H169.348L168.165 32.3762L171.518 34.5576ZM156.234 35.3145L153.202 37.9231L153.207 37.9287L153.212 37.9342L156.234 35.3145ZM171.518 15.8564L168.012 17.7822L169.151 19.8564H171.518V15.8564ZM171.615 15.8564V19.8564H175.615V15.8564H171.615ZM171.615 0.988281V-3.01172H167.615V0.988281H171.615ZM179.33 0.988281H183.33V-3.01172H179.33V0.988281ZM162.655 20.3242L165.902 22.6604L165.909 22.6511L165.916 22.6417L162.655 20.3242ZM162.606 30.9199L159.454 33.3817L162.606 30.9199ZM170.272 30.8223L167.137 28.3384L167.127 28.351L167.117 28.3637L170.272 30.8223ZM179.33 34H171.615V42H179.33V34ZM175.615 38V34.5576H167.615V38H175.615ZM171.615 30.5576H171.518V38.5576H171.615V30.5576ZM168.165 32.3762C167.193 33.8704 165.917 34.6104 163.778 34.6104V42.6104C168.444 42.6104 172.327 40.6484 174.87 36.739L168.165 32.3762ZM163.778 34.6104C161.715 34.6104 160.34 33.9438 159.257 32.6947L153.212 37.9342C155.938 41.0797 159.591 42.6104 163.778 42.6104V34.6104ZM159.267 32.7058C158.178 31.4404 157.378 29.4003 157.378 26.0615H149.378C149.378 30.6329 150.482 34.7615 153.202 37.9231L159.267 32.7058ZM157.378 26.0615C157.378 22.6106 158.243 20.2954 159.585 18.7034L153.469 13.5466C150.612 16.9351 149.378 21.2442 149.378 26.0615H157.378ZM159.585 18.7034C160.887 17.1594 162.497 16.3896 164.779 16.3896V8.38965C160.258 8.38965 156.367 10.1101 153.469 13.5466L159.585 18.7034ZM164.779 16.3896C166.927 16.3896 167.612 17.0549 168.012 17.7822L175.023 13.9307C172.884 10.0356 169.077 8.38965 164.779 8.38965V16.3896ZM171.518 19.8564H171.615V11.8564H171.518V19.8564ZM175.615 15.8564V0.988281H167.615V15.8564H175.615ZM171.615 4.98828H179.33V-3.01172H171.615V4.98828ZM175.33 0.988281V38H183.33V0.988281H175.33ZM175.762 25.8418V23.9619H167.762V25.8418H175.762ZM175.762 23.9619C175.762 21.5057 175.025 19.1738 173.35 17.2687L167.341 22.5496C167.555 22.793 167.762 23.1629 167.762 23.9619H175.762ZM173.35 17.2687C171.598 15.2746 169.247 14.2979 166.659 14.2979V22.2979C167.099 22.2979 167.205 22.3953 167.341 22.5496L173.35 17.2687ZM166.659 14.2979C163.703 14.2979 161.133 15.5619 159.395 18.0067L165.916 22.6417C166.061 22.4371 166.155 22.3875 166.183 22.3734C166.215 22.357 166.342 22.2979 166.659 22.2979V14.2979ZM159.408 17.988C157.79 20.2375 157.215 23.0037 157.215 25.8418H165.215C165.215 23.9924 165.6 23.0802 165.902 22.6604L159.408 17.988ZM157.215 25.8418C157.215 28.5369 157.776 31.2325 159.454 33.3817L165.759 28.4582C165.582 28.231 165.215 27.5412 165.215 25.8418H157.215ZM159.454 33.3817C161.215 35.6373 163.716 36.7021 166.464 36.7021V28.7021C166.129 28.7021 165.983 28.6434 165.944 28.6254C165.916 28.6124 165.857 28.5838 165.759 28.4582L159.454 33.3817ZM166.464 36.7021C169.284 36.7021 171.708 35.4876 173.428 33.2809L167.117 28.3637C166.954 28.5732 166.849 28.6299 166.817 28.6453C166.788 28.6597 166.696 28.7021 166.464 28.7021V36.7021ZM173.408 33.3061C175.106 31.162 175.762 28.5438 175.762 25.8418H167.762C167.762 27.2739 167.424 27.976 167.137 28.3384L173.408 33.3061ZM208.285 27.6973V31.6973H212.285V27.6973H208.285ZM191.977 27.6973V23.6973H187.679L187.987 27.9835L191.977 27.6973ZM206.088 31.1885H210.088V23.9715L203.968 27.7965L206.088 31.1885ZM206.088 36.7549L207.975 40.2815L210.088 39.1509V36.7549H206.088ZM187.68 35.2656L184.841 38.0837L184.846 38.0889L184.851 38.0941L187.68 35.2656ZM205.282 15.6367L202.335 18.3406L202.34 18.3466L202.346 18.3526L205.282 15.6367ZM201.132 22.9609V26.9609H205.132V22.9609H201.132ZM193.563 19.1279L190.574 16.4705L190.562 16.4838L190.55 16.4973L193.563 19.1279ZM191.928 22.9609L187.96 22.4544L187.385 26.9609H191.928V22.9609ZM208.285 23.6973H191.977V31.6973H208.285V23.6973ZM187.987 27.9835C188.176 30.6207 189.172 33.1449 191.4 34.9138C193.519 36.5951 196.192 37.1416 198.837 37.1416V29.1416C197.168 29.1416 196.542 28.7807 196.373 28.6473C196.316 28.6013 196.038 28.4034 195.966 27.411L187.987 27.9835ZM198.837 37.1416C202.245 37.1416 205.415 36.3261 208.208 34.5805L203.968 27.7965C202.594 28.655 200.93 29.1416 198.837 29.1416V37.1416ZM202.088 31.1885V36.7549H210.088V31.1885H202.088ZM204.2 33.2282C202.659 34.0534 200.369 34.6104 197.079 34.6104V42.6104C201.178 42.6104 204.895 41.9304 207.975 40.2815L204.2 33.2282ZM197.079 34.6104C193.792 34.6104 191.793 33.7222 190.508 32.4372L184.851 38.0941C188.026 41.2687 192.293 42.6104 197.079 42.6104V34.6104ZM190.518 32.4475C189.217 31.1364 188.335 29.1328 188.335 25.8906H180.335C180.335 30.6563 181.683 34.9027 184.841 38.0837L190.518 32.4475ZM188.335 25.8906C188.335 22.5554 189.276 20.3668 190.786 18.8462L185.11 13.2085C181.803 16.5382 180.335 20.925 180.335 25.8906H188.335ZM190.786 18.8462C192.42 17.2009 194.351 16.3896 196.835 16.3896V8.38965C192.288 8.38965 188.294 10.0035 185.11 13.2085L190.786 18.8462ZM196.835 16.3896C199.65 16.3896 201.283 17.1938 202.335 18.3406L208.23 12.9328C205.311 9.75021 201.311 8.38965 196.835 8.38965V16.3896ZM202.346 18.3526C203.5 19.6006 204.285 21.475 204.285 24.4502H212.285C212.285 20.0036 211.069 16.0023 208.219 12.9208L202.346 18.3526ZM204.285 24.4502V27.6973H212.285V24.4502H204.285ZM205.132 22.9609C205.132 20.7352 204.699 18.3243 203.155 16.4166C201.48 14.347 199.102 13.5898 196.786 13.5898V21.5898C197.106 21.5898 197.202 21.6398 197.164 21.624C197.101 21.598 197.004 21.5327 196.936 21.4486C196.882 21.3822 196.933 21.4102 196.998 21.6527C197.066 21.9034 197.132 22.3224 197.132 22.9609H205.132ZM196.786 13.5898C194.274 13.5898 192.152 14.6952 190.574 16.4705L196.553 21.7854C196.708 21.6112 196.788 21.5784 196.776 21.5843C196.772 21.5859 196.764 21.5891 196.755 21.591C196.747 21.5928 196.755 21.5898 196.786 21.5898V13.5898ZM190.55 16.4973C189.066 18.1976 188.242 20.2457 187.96 22.4544L195.896 23.4675C196.004 22.6163 196.271 22.109 196.577 21.7586L190.55 16.4973ZM191.928 26.9609H201.132V18.9609H191.928V26.9609ZM256.601 2.99023L260.382 4.29306L262.209 -1.00977H256.601V2.99023ZM244.54 38V42H247.393L248.322 39.3028L244.54 38ZM235.604 38L231.818 39.2887L232.74 42H235.604V38ZM223.69 2.99023V-1.00977H218.104L219.904 4.27889L223.69 2.99023ZM232.187 2.99023L236.018 1.84225L235.164 -1.00977H232.187V2.99023ZM239.486 27.3555L243.322 26.2191L243.318 26.2075L239.486 27.3555ZM240.194 30.8467L236.207 31.1682L236.504 34.8467H240.194V30.8467ZM240.341 30.8467V34.8467H243.945L244.319 31.2623L240.341 30.8467ZM241.098 27.2578L244.929 28.4072L244.93 28.403L241.098 27.2578ZM248.349 2.99023V-1.00977H245.369L244.516 1.84509L248.349 2.99023ZM252.819 1.68741L240.758 36.6972L248.322 39.3028L260.382 4.29306L252.819 1.68741ZM244.54 34H235.604V42H244.54V34ZM239.391 36.7113L227.477 1.70158L219.904 4.27889L231.818 39.2887L239.391 36.7113ZM223.69 6.99023H232.187V-1.00977H223.69V6.99023ZM228.355 4.13822L235.655 28.5035L243.318 26.2075L236.018 1.84225L228.355 4.13822ZM235.651 28.4918C235.989 29.6321 236.154 30.5134 236.207 31.1682L244.181 30.5251C244.071 29.1618 243.765 27.7156 243.322 26.2191L235.651 28.4918ZM240.194 34.8467H240.341V26.8467H240.194V34.8467ZM244.319 31.2623C244.402 30.4712 244.594 29.5242 244.929 28.4072L237.266 26.1084C236.82 27.5956 236.508 29.0412 236.362 30.431L244.319 31.2623ZM244.93 28.403L252.181 4.13538L244.516 1.84509L237.265 26.1127L244.93 28.403ZM248.349 6.99023H256.601V-1.00977H248.349V6.99023ZM282.504 27.6973V31.6973H286.504V27.6973H282.504ZM266.195 27.6973V23.6973H261.898L262.206 27.9835L266.195 27.6973ZM280.307 31.1885H284.307V23.9715L278.187 27.7965L280.307 31.1885ZM280.307 36.7549L282.194 40.2815L284.307 39.1509V36.7549H280.307ZM261.898 35.2656L259.06 38.0837L259.065 38.0889L259.07 38.0941L261.898 35.2656ZM279.501 15.6367L276.553 18.3406L276.559 18.3466L276.564 18.3526L279.501 15.6367ZM275.351 22.9609V26.9609H279.351V22.9609H275.351ZM267.782 19.1279L264.793 16.4705L264.781 16.4838L264.769 16.4973L267.782 19.1279ZM266.146 22.9609L262.179 22.4544L261.603 26.9609H266.146V22.9609ZM282.504 23.6973H266.195V31.6973H282.504V23.6973ZM262.206 27.9835C262.395 30.6207 263.39 33.1449 265.619 34.9138C267.738 36.5951 270.411 37.1416 273.056 37.1416V29.1416C271.387 29.1416 270.76 28.7807 270.592 28.6473C270.534 28.6013 270.256 28.4034 270.185 27.411L262.206 27.9835ZM273.056 37.1416C276.464 37.1416 279.634 36.3261 282.427 34.5805L278.187 27.7965C276.813 28.655 275.149 29.1416 273.056 29.1416V37.1416ZM276.307 31.1885V36.7549H284.307V31.1885H276.307ZM278.419 33.2282C276.877 34.0534 274.588 34.6104 271.298 34.6104V42.6104C275.397 42.6104 279.113 41.9304 282.194 40.2815L278.419 33.2282ZM271.298 34.6104C268.011 34.6104 266.012 33.7222 264.727 32.4372L259.07 38.0941C262.245 41.2687 266.512 42.6104 271.298 42.6104V34.6104ZM264.737 32.4475C263.435 31.1364 262.554 29.1328 262.554 25.8906H254.554C254.554 30.6563 255.902 34.9027 259.06 38.0837L264.737 32.4475ZM262.554 25.8906C262.554 22.5554 263.495 20.3668 265.005 18.8462L259.329 13.2085C256.022 16.5382 254.554 20.925 254.554 25.8906H262.554ZM265.005 18.8462C266.639 17.2009 268.57 16.3896 271.054 16.3896V8.38965C266.507 8.38965 262.512 10.0035 259.329 13.2085L265.005 18.8462ZM271.054 16.3896C273.869 16.3896 275.501 17.1938 276.553 18.3406L282.449 12.9328C279.529 9.75021 275.53 8.38965 271.054 8.38965V16.3896ZM276.564 18.3526C277.718 19.6006 278.504 21.475 278.504 24.4502H286.504C286.504 20.0036 285.287 16.0023 282.438 12.9208L276.564 18.3526ZM278.504 24.4502V27.6973H286.504V24.4502H278.504ZM279.351 22.9609C279.351 20.7352 278.917 18.3243 277.374 16.4166C275.699 14.347 273.321 13.5898 271.005 13.5898V21.5898C271.324 21.5898 271.421 21.6398 271.382 21.624C271.32 21.598 271.223 21.5327 271.155 21.4486C271.101 21.3822 271.152 21.4102 271.217 21.6527C271.285 21.9034 271.351 22.3224 271.351 22.9609H279.351ZM271.005 13.5898C268.493 13.5898 266.371 14.6952 264.793 16.4705L270.772 21.7854C270.927 21.6112 271.007 21.5784 270.994 21.5843C270.991 21.5859 270.983 21.5891 270.974 21.591C270.966 21.5928 270.974 21.5898 271.005 21.5898V13.5898ZM264.769 16.4973C263.285 18.1976 262.461 20.2457 262.179 22.4544L270.114 23.4675C270.223 22.6163 270.49 22.109 270.796 21.7586L264.769 16.4973ZM266.146 26.9609H275.351V18.9609H266.146V26.9609ZM311.239 38V42H315.239V38H311.239ZM303.549 38H299.549V42H303.549V38ZM296.103 19.8359L293.042 17.2609L296.103 19.8359ZM294.809 38V42H298.809V38H294.809ZM287.094 38H283.094V42H287.094V38ZM287.094 13V9H283.094V13H287.094ZM294.809 13H298.809V9H294.809V13ZM294.809 16.9551H290.809V20.9551H294.809V16.9551ZM294.906 16.9551V20.9551H297.163L298.33 19.0238L294.906 16.9551ZM311.239 34H303.549V42H311.239V34ZM307.549 38V24.1084H299.549V38H307.549ZM307.549 24.1084C307.549 21.8162 307.161 19.3787 305.766 17.4255C304.194 15.2244 301.833 14.2979 299.398 14.2979V22.2979C299.625 22.2979 299.632 22.3369 299.523 22.2857C299.392 22.2248 299.294 22.1289 299.256 22.0754C299.236 22.0468 299.316 22.1459 299.398 22.4928C299.481 22.8414 299.549 23.3652 299.549 24.1084H307.549ZM299.398 14.2979C296.878 14.2979 294.661 15.3363 293.042 17.2609L299.163 22.411C299.215 22.3497 299.249 22.3207 299.262 22.3106C299.274 22.3012 299.274 22.3028 299.265 22.3071C299.256 22.3114 299.254 22.3107 299.266 22.308C299.28 22.3051 299.322 22.2979 299.398 22.2979V14.2979ZM293.042 17.2609C291.468 19.1315 290.809 21.3975 290.809 23.7422H298.809C298.809 22.9293 299.012 22.5912 299.163 22.411L293.042 17.2609ZM290.809 23.7422V38H298.809V23.7422H290.809ZM294.809 34H287.094V42H294.809V34ZM291.094 38V13H283.094V38H291.094ZM287.094 17H294.809V9H287.094V17ZM290.809 13V16.9551H298.809V13H290.809ZM294.809 20.9551H294.906V12.9551H294.809V20.9551ZM298.33 19.0238C299.455 17.1619 300.843 16.3896 302.938 16.3896V8.38965C298.003 8.38965 294.036 10.661 291.483 14.8863L298.33 19.0238ZM302.938 16.3896C304.832 16.3896 305.614 16.9348 306.049 17.4749C306.617 18.1802 307.239 19.6905 307.239 22.6924H315.239C315.239 18.8258 314.478 15.1847 312.279 12.4558C309.947 9.56165 306.578 8.38965 302.938 8.38965V16.3896ZM307.239 22.6924V38H315.239V22.6924H307.239ZM332.479 37.707L334.349 41.2434L336.479 40.1171V37.707H332.479ZM319.174 18.6885H323.174V14.6885H319.174V18.6885ZM315.121 18.6885H311.121V22.6885H315.121V18.6885ZM315.121 13V9H311.121V13H315.121ZM319.174 13V17H323.174V13H319.174ZM319.174 7.60449L318.075 3.7584L315.174 4.58729V7.60449H319.174ZM326.864 5.40723H330.864V0.104306L325.765 1.56113L326.864 5.40723ZM326.864 13H322.864V17H326.864V13ZM332.479 13H336.479V9H332.479V13ZM332.479 18.6885V22.6885H336.479V18.6885H332.479ZM326.864 18.6885V14.6885H322.864V18.6885H326.864ZM332.479 31.9941H336.479V25.2458L330.559 28.4851L332.479 31.9941ZM330.61 34.1707C330.337 34.315 329.407 34.6104 327.328 34.6104V42.6104C329.839 42.6104 332.343 42.3035 334.349 41.2434L330.61 34.1707ZM327.328 34.6104C325.266 34.6104 324.445 34.083 324.094 33.7185C323.716 33.3256 323.174 32.3834 323.174 30.1387H315.174C315.174 33.5417 315.991 36.8354 318.331 39.2664C320.698 41.7258 323.954 42.6104 327.328 42.6104V34.6104ZM323.174 30.1387V18.6885H315.174V30.1387H323.174ZM319.174 14.6885H315.121V22.6885H319.174V14.6885ZM319.121 18.6885V13H311.121V18.6885H319.121ZM315.121 17H319.174V9H315.121V17ZM323.174 13V7.60449H315.174V13H323.174ZM320.273 11.4506L327.963 9.25332L325.765 1.56113L318.075 3.7584L320.273 11.4506ZM322.864 5.40723V13H330.864V5.40723H322.864ZM326.864 17H332.479V9H326.864V17ZM328.479 13V18.6885H336.479V13H328.479ZM332.479 14.6885H326.864V22.6885H332.479V14.6885ZM322.864 18.6885V28.7959H330.864V18.6885H322.864ZM322.864 28.7959C322.864 30.5199 323.188 32.552 324.506 34.2124C325.964 36.049 328.038 36.7021 329.965 36.7021V28.7021C329.861 28.7021 329.956 28.6854 330.157 28.77C330.383 28.8648 330.607 29.0307 330.772 29.2388C330.922 29.4278 330.943 29.549 330.925 29.4818C330.905 29.4073 330.864 29.1954 330.864 28.7959H322.864ZM329.965 36.7021C331.576 36.7021 333.07 36.2306 334.4 35.5032L330.559 28.4851C330.164 28.7017 329.981 28.7021 329.965 28.7021V36.7021ZM328.479 31.9941V37.707H336.479V31.9941H328.479ZM357.65 38V42H361.65V38H357.65ZM350.351 38H346.351V42H350.351V38ZM350.351 34.4111H354.351V30.4111H350.351V34.4111ZM350.253 34.4111V30.4111H347.986L346.821 32.3561L350.253 34.4111ZM337.069 36.5596L334.241 39.388L334.258 39.4046L334.274 39.4211L337.069 36.5596ZM343.612 22.6436L344.129 26.61L344.14 26.6086L343.612 22.6436ZM350.399 21.7402L350.927 25.7053L354.399 25.2431V21.7402H350.399ZM337.46 20.2998H333.46V27.7362L339.665 23.6373L337.46 20.2998ZM337.46 14.4893L335.628 10.9334L333.46 12.0503V14.4893H337.46ZM341.854 13.0244L340.972 9.12288L340.965 9.12456L341.854 13.0244ZM350.399 26.1592H354.399V21.6099L349.888 22.1921L350.399 26.1592ZM345.858 26.7451L345.347 22.778L345.343 22.7784L345.858 26.7451ZM343.002 32.3115L340.253 35.2174L340.293 35.2555L340.335 35.2925L343.002 32.3115ZM349.032 31.6523L351.979 34.3574L351.99 34.3455L352.001 34.3335L349.032 31.6523ZM357.65 34H350.351V42H357.65V34ZM354.351 38V34.4111H346.351V38H354.351ZM350.351 30.4111H350.253V38.4111H350.351V30.4111ZM346.821 32.3561C345.874 33.9379 344.701 34.6104 342.807 34.6104V42.6104C347.488 42.6104 351.279 40.4834 353.685 36.4662L346.821 32.3561ZM342.807 34.6104C341.162 34.6104 340.347 34.1696 339.864 33.6981L334.274 39.4211C336.591 41.6839 339.601 42.6104 342.807 42.6104V34.6104ZM339.898 33.7311C339.394 33.227 338.994 32.4738 338.994 31.042H330.994C330.994 34.2 331.978 37.1252 334.241 39.388L339.898 33.7311ZM338.994 31.042C338.994 29.4537 339.434 28.6627 339.94 28.1694C340.536 27.5887 341.746 26.9205 344.129 26.61L343.095 18.6771C339.733 19.1153 336.634 20.2212 334.357 22.44C331.99 24.7462 330.994 27.78 330.994 31.042H338.994ZM344.14 26.6086L350.927 25.7053L349.872 17.7752L343.085 18.6785L344.14 26.6086ZM354.399 21.7402C354.399 19.6706 353.824 17.407 352.002 15.7248C350.24 14.0986 347.978 13.6387 345.956 13.6387V21.6387C346.402 21.6387 346.637 21.6915 346.724 21.7181C346.795 21.74 346.708 21.7252 346.575 21.6033C346.514 21.5462 346.461 21.4827 346.421 21.4208C346.381 21.36 346.364 21.3166 346.359 21.3044C346.353 21.2866 346.399 21.407 346.399 21.7402H354.399ZM345.956 13.6387C342.13 13.6387 338.54 14.7925 335.255 16.9623L339.665 23.6373C341.751 22.2589 343.825 21.6387 345.956 21.6387V13.6387ZM341.46 20.2998V14.4893H333.46V20.2998H341.46ZM339.292 18.0452C339.948 17.7072 341.051 17.3103 342.744 16.9243L340.965 9.12456C338.947 9.5849 337.121 10.1645 335.628 10.9334L339.292 18.0452ZM342.737 16.9259C344.388 16.5525 345.788 16.3896 346.957 16.3896V8.38965C345.067 8.38965 343.064 8.65001 340.972 9.12288L342.737 16.9259ZM346.957 16.3896C349.907 16.3896 351.385 17.1231 352.152 17.8885C352.917 18.6523 353.65 20.1212 353.65 23.0586H361.65C361.65 18.8834 360.601 15.0178 357.802 12.2252C355.005 9.43435 351.136 8.38965 346.957 8.38965V16.3896ZM353.65 23.0586V38H361.65V23.0586H353.65ZM354.399 27.8438V26.1592H346.399V27.8438H354.399ZM349.888 22.1921L345.347 22.778L346.37 30.7122L350.911 30.1263L349.888 22.1921ZM345.343 22.7784C343.662 22.9968 341.82 23.5489 340.358 24.8683C338.764 26.3074 338.099 28.2222 338.099 30.1387H346.099C346.099 30.0868 346.106 30.1791 346.037 30.3497C345.962 30.5332 345.843 30.695 345.719 30.807C345.607 30.9075 345.557 30.9095 345.659 30.8702C345.765 30.829 345.989 30.7618 346.374 30.7118L345.343 22.7784ZM338.099 30.1387C338.099 32.0428 338.8 33.8427 340.253 35.2174L345.751 29.4057C345.834 29.484 345.941 29.6205 346.018 29.8055C346.093 29.9854 346.099 30.1145 346.099 30.1387H338.099ZM340.335 35.2925C341.86 36.6572 343.727 37.1416 345.492 37.1416V29.1416C345.322 29.1416 345.291 29.1187 345.353 29.1393C345.385 29.15 345.435 29.1699 345.494 29.2041C345.554 29.2386 345.614 29.2813 345.669 29.3306L340.335 35.2925ZM345.492 37.1416C347.967 37.1416 350.249 36.2422 351.979 34.3574L346.086 28.9473C345.998 29.0427 345.944 29.0689 345.913 29.0823C345.874 29.0984 345.754 29.1416 345.492 29.1416V37.1416ZM352.001 34.3335C353.66 32.496 354.399 30.2311 354.399 27.8438H346.399C346.399 28.5163 346.227 28.7904 346.064 28.9712L352.001 34.3335Z" fill="white" mask="url(#path-1-outside-1_292_390)"/>
</svg>
